name C:\Users\u0101727\Documents\MyRepositories\upper-imu-dc\Results\main_tracking\Case_32\ABD01_angularVelocities_groundFrame.mot
datacolumns 4
datarows 117
range 8.06000000 9.22000000
endheader 
time	radius_imu_x	radius_imu_y	radius_imu_z	
          8.06000000	          1.28426825	          0.03514772	         -1.11807451	
          8.07000000	          1.28910443	          0.04276591	         -0.99664610	
          8.08000000	          1.28911343	          0.04237493	         -0.88520149	
          8.09000000	          1.28417310	          0.03396322	         -0.78810063	
          8.10000000	          1.27494492	          0.01885869	         -0.70632844	
          8.11000000	          1.26272779	         -0.00054838	         -0.63689183	
          8.12000000	          1.24933665	         -0.02115048	         -0.57255451	
          8.13000000	          1.23701497	         -0.03951568	         -0.50210987	
          8.14000000	          1.22826717	         -0.05238787	         -0.41161295	
          8.15000000	          1.22551711	         -0.05728409	         -0.28674851	
          8.16000000	          1.23063587	         -0.05304332	         -0.11594206	
          8.17000000	          1.24447178	         -0.04015626	          0.10648595	
          8.18000000	          1.26648902	         -0.02080373	          0.37763471	
          8.19000000	          1.29456844	          0.00138747	          0.68406403	
          8.20000000	          1.32502383	          0.02186137	          1.00091542	
          8.21000000	          1.35291484	          0.03592740	          1.29283267	
          8.22000000	          1.37273167	          0.03978607	          1.51762369	
          8.23000000	          1.37944894	          0.03160527	          1.63327111	
          8.24000000	          1.36978834	          0.01231324	          1.60776628	
          8.25000000	          1.34330855	         -0.01430023	          1.42925444	
          8.26000000	          1.30279599	         -0.04244108	          1.11207647	
          8.27000000	          1.25366415	         -0.06592901	          0.69513583	
          8.28000000	          1.20266190	         -0.07988812	          0.23341559	
          8.29000000	          1.15654673	         -0.08183855	         -0.21280130	
          8.30000000	          1.12114701	         -0.07200341	         -0.58703061	
          8.31000000	          1.10081838	         -0.05304343	         -0.84289689	
          8.32000000	          1.09814492	         -0.02947144	         -0.94832727	
          8.33000000	          1.11381737	         -0.00685847	         -0.88837478	
          8.34000000	          1.14669079	          0.00913833	         -0.66683476	
          8.35000000	          1.19398536	          0.01385474	         -0.30652077	
          8.36000000	          1.25153917	          0.00466952	          0.15188720	
          8.37000000	          1.31407263	         -0.01813477	          0.65268773	
          8.38000000	          1.37555291	         -0.05089350	          1.13046104	
          8.39000000	          1.42982037	         -0.08672615	          1.51869115	
          8.40000000	          1.47155159	         -0.11661536	          1.76153965	
          8.41000000	          1.49737636	         -0.13142582	          1.82627217	
          8.42000000	          1.50667841	         -0.12433590	          1.71131988	
          8.43000000	          1.50161931	         -0.09270036	          1.44548172	
          8.44000000	          1.48635872	         -0.03861005	          1.07859889	
          8.45000000	          1.46588410	          0.03184762	          0.66851403	
          8.46000000	          1.44490157	          0.11018591	          0.26903816	
          8.47000000	          1.42703676	          0.18749965	         -0.07874404	
          8.48000000	          1.41444749	          0.25632311	         -0.35087364	
          8.49000000	          1.40785100	          0.31185800	         -0.54044805	
          8.50000000	          1.40684938	          0.35231593	         -0.65407057	
          8.51000000	          1.41036755	          0.37847574	         -0.70663290	
          8.52000000	          1.41704934	          0.39276273	         -0.71610731	
          8.53000000	          1.42554732	          0.39816617	         -0.69930842	
          8.54000000	          1.43471625	          0.39723124	         -0.66895607	
          8.55000000	          1.44373067	          0.39132272	         -0.63218643	
          8.56000000	          1.45211528	          0.38036880	         -0.59071445	
          8.57000000	          1.45967051	          0.36321955	         -0.54261950	
          8.58000000	          1.46631916	          0.33851798	         -0.48511272	
          8.59000000	          1.47194628	          0.30571998	         -0.41716241	
          8.60000000	          1.47630362	          0.26582007	         -0.34097502	
          8.61000000	          1.47900225	          0.22154001	         -0.26204158	
          8.62000000	          1.47956230	          0.17710711	         -0.18829566	
          8.63000000	          1.47747743	          0.13795300	         -0.12918110	
          8.64000000	          1.47229309	          0.11043928	         -0.09481652	
          8.65000000	          1.46373795	          0.10127345	         -0.09464954	
          8.66000000	          1.45191549	          0.11616313	         -0.13500034	
          8.67000000	          1.43747148	          0.15779680	         -0.21599771	
          8.68000000	          1.42159350	          0.22412025	         -0.32973326	
          8.69000000	          1.40576228	          0.30810672	         -0.46130831	
          8.70000000	          1.39135279	          0.39931157	         -0.59253489	
          8.71000000	          1.37929298	          0.48641863	         -0.70642244	
          8.72000000	          1.36992223	          0.55970484	         -0.79063534	
          8.73000000	          1.36305430	          0.61272016	         -0.83912042	
          8.74000000	          1.35815426	          0.64298347	         -0.85204573	
          8.75000000	          1.35452185	          0.65181583	         -0.83460791	
          8.76000000	          1.35141904	          0.64345247	         -0.79514734	
          8.77000000	          1.34814090	          0.62351573	         -0.74281579	
          8.78000000	          1.34405880	          0.59709326	         -0.68517279	
          8.79000000	          1.33865695	          0.56701983	         -0.62640682	
          8.80000000	          1.33156552	          0.53314855	         -0.56692775	
          8.81000000	          1.32259078	          0.49308100	         -0.50457563	
          8.82000000	          1.31174959	          0.44407218	         -0.43686520	
          8.83000000	          1.29931008	          0.38513974	         -0.36312287	
          8.84000000	          1.28581754	          0.31829148	         -0.28549209	
          8.85000000	          1.27206441	          0.24833086	         -0.20848937	
          8.86000000	          1.25897157	          0.18151324	         -0.13758641	
          8.87000000	          1.24739360	          0.12382614	         -0.07764427	
          8.88000000	          1.23791512	          0.07957268	         -0.03180074	
          8.89000000	          1.23072200	          0.05052393	         -0.00096603	
          8.90000000	          1.22559402	          0.03564098	          0.01616656	
          8.91000000	          1.22200919	          0.03136268	          0.02268857	
          8.92000000	          1.21931234	          0.03248010	          0.02267783	
          8.93000000	          1.21688849	          0.03350260	          0.02015060	
          8.94000000	          1.21428869	          0.03018756	          0.01802337	
          8.95000000	          1.21127693	          0.02072154	          0.01743549	
          8.96000000	          1.20779705	          0.00608797	          0.01769922	
          8.97000000	          1.20388725	         -0.01053868	          0.01689257	
          8.98000000	          1.19958475	         -0.02511797	          0.01282892	
          8.99000000	          1.19485587	         -0.03420339	          0.00397438	
          9.00000000	          1.18956715	         -0.03590917	         -0.01005803	
          9.01000000	          1.18350006	         -0.03008392	         -0.02854005	
          9.02000000	          1.17640519	         -0.01784873	         -0.05001236	
          9.03000000	          1.16807607	         -0.00088305	         -0.07276559	
          9.04000000	          1.15840713	          0.01924403	         -0.09526003	
          9.05000000	          1.14740471	          0.04161254	         -0.11645747	
          9.06000000	          1.13514403	          0.06641736	         -0.13609968	
          9.07000000	          1.12169178	          0.09538801	         -0.15492754	
          9.08000000	          1.10702939	          0.13200993	         -0.17473519	
          9.09000000	          1.09101344	          0.18124980	         -0.19810864	
          9.10000000	          1.07339388	          0.24861304	         -0.22781069	
          9.11000000	          1.05388372	          0.33872780	         -0.26597662	
          9.12000000	          1.03225272	          0.45389830	         -0.31338144	
          9.13000000	          1.00841491	          0.59297349	         -0.36895573	
          9.14000000	          0.98248745	          0.75061910	         -0.42958794	
          9.15000000	          0.95480946	          0.91697838	         -0.49019956	
          9.16000000	          0.92591945	          1.07784029	         -0.54412111	
          9.17000000	          0.89649570	          1.21562249	         -0.58383716	
          9.18000000	          0.86726423	          1.31151501	         -0.60213884	
          9.19000000	          0.83888200	          1.34896728	         -0.59364245	
          9.20000000	          0.81180915	          1.31828580	         -0.55648644	
          9.21000000	          0.78620010	          1.22115826	         -0.49369266	
          9.22000000	          0.76186645	          1.07277345	         -0.41334857	
